<?xml version="1.0" standalone="no"?>
<svg viewBox="0 0 200 200" xmlns="http://www.w3.org/2000/svg">
  <path fill="#24A148" d="M50.8,-74C65.9,-69.3,78.3,-55.3,76.8,-40.4C75.4,-25.4,60.2,-9.5,57,7.7C53.7,24.9,62.4,43.3,59.4,57.4C56.4,71.5,41.6,81.4,25.1,86.8C8.6,92.3,-9.6,93.4,-23.4,86.3C-37.2,79.2,-46.7,63.9,-48.5,49.1C-50.3,34.3,-44.4,19.9,-46.6,6.5C-48.8,-6.9,-59.2,-19.3,-61.4,-33.7C-63.6,-48.1,-57.7,-64.3,-46.1,-70.7C-34.5,-77,-17.3,-73.3,0.3,-73.8C17.8,-74.2,35.6,-78.7,50.8,-74Z" transform="translate(100 100)" />
</svg>
